<?xml version="1.0" standalone="no"?>
<!DOCTYPE svg PUBLIC "-//W3C//DTD SVG 20010904//EN"
 "http://www.w3.org/TR/2001/REC-SVG-20010904/DTD/svg10.dtd">
<svg version="1.0" xmlns="http://www.w3.org/2000/svg"
 width="1112.000000pt" height="1112.000000pt" viewBox="0 0 1112.000000 1112.000000"
 preserveAspectRatio="xMidYMid meet">
<metadata>
Created by potrace 1.11, written by Peter Selinger 2001-2013
</metadata>
<g transform="translate(0.000000,1112.000000) scale(0.100000,-0.100000)"
fill="#000000" stroke="none">
<path d="M5890 8336 c-143 -33 -244 -115 -327 -263 -46 -82 -97 -252 -117
-388 -4 -23 -8 -51 -11 -64 -2 -13 -7 -49 -10 -80 -4 -31 -8 -63 -10 -71 -2
-8 -7 -51 -11 -95 -4 -44 -8 -93 -10 -110 -22 -230 -22 -963 1 -1145 2 -14 6
-68 9 -121 4 -52 8 -104 10 -114 2 -11 7 -58 11 -105 4 -47 9 -93 10 -102 2
-9 7 -48 10 -85 4 -37 9 -77 11 -88 3 -11 6 -38 9 -60 2 -22 6 -54 9 -70 3
-17 8 -50 11 -75 9 -69 39 -239 54 -310 11 -56 10 -60 -77 -195 -181 -281
-361 -430 -530 -443 -62 -4 -76 -1 -133 26 -39 19 -86 53 -121 87 l-56 57 14
47 c7 26 39 119 69 207 187 537 219 686 219 1019 0 188 -8 268 -45 423 -73
315 -254 493 -484 477 -72 -5 -87 -8 -145 -31 -167 -65 -307 -228 -368 -426
-28 -91 -34 -139 -33 -298 0 -166 6 -235 31 -381 51 -302 123 -510 331 -956
16 -35 29 -67 29 -73 0 -17 -59 -130 -113 -215 -123 -193 -254 -324 -352 -350
-51 -13 -134 -13 -185 0 -181 48 -306 230 -444 646 -110 332 -219 741 -262
983 -24 135 -145 296 -269 356 -78 38 -128 48 -217 45 -182 -7 -350 -136 -457
-350 -36 -72 -81 -192 -96 -255 -8 -36 -35 -162 -35 -168 -1 -4 -37 81 -81
188 -44 107 -86 209 -94 225 -7 17 -97 239 -200 495 -102 256 -192 479 -200
495 -7 17 -48 118 -90 225 -42 107 -82 209 -89 225 -7 17 -26 62 -41 100 -15
39 -34 85 -42 102 -7 18 -25 63 -39 100 -14 38 -31 82 -38 98 -7 17 -26 62
-41 100 -15 39 -31 79 -36 90 -5 11 -54 135 -110 275 -56 140 -103 257 -104
258 -3 4 -446 -358 -488 -398 -18 -17 -17 -20 26 -96 24 -44 61 -110 82 -149
21 -38 45 -83 55 -100 10 -16 41 -75 70 -130 29 -55 67 -127 85 -160 45 -83
304 -601 350 -700 151 -325 231 -506 362 -820 41 -99 81 -193 88 -210 8 -16
30 -70 50 -120 21 -49 43 -103 50 -120 7 -16 84 -195 169 -397 141 -331 301
-693 432 -978 119 -257 386 -781 500 -980 l49 -85 49 -1 c64 -1 327 73 341 97
3 5 -9 33 -27 62 -18 29 -38 62 -45 73 -34 55 -238 410 -278 484 -132 244
-245 490 -288 625 -52 164 -112 435 -124 555 -19 187 -3 308 52 392 26 40 114
110 155 123 62 21 119 -9 177 -92 53 -76 193 -365 295 -608 139 -333 256 -508
413 -620 120 -86 244 -116 450 -111 122 4 143 6 198 21 197 55 350 186 534
456 l58 85 54 -75 c30 -42 78 -97 107 -122 47 -40 76 -57 165 -100 58 -27 182
-27 293 1 222 55 339 154 530 448 47 72 88 132 90 132 2 0 24 -36 49 -79 100
-171 230 -272 359 -276 265 -10 499 187 742 623 32 57 59 102 61 100 2 -2 6
-17 9 -33 3 -16 10 -41 15 -55 8 -22 31 -99 37 -125 10 -41 59 -177 91 -251
100 -230 197 -347 325 -385 60 -18 72 -20 132 -23 53 -2 82 1 162 18 30 6 143
64 184 94 46 34 156 128 198 169 19 18 38 33 42 33 4 0 8 -35 9 -77 1 -75 3
-100 17 -222 8 -76 12 -97 35 -181 73 -268 227 -391 483 -384 149 4 245 34
376 119 147 94 273 248 369 450 38 79 105 253 102 267 0 2 6 26 15 53 17 59
51 222 59 285 3 25 7 54 9 65 15 79 25 260 26 460 l0 150 43 24 c192 109 386
274 433 367 28 58 26 174 -5 234 -46 87 -145 195 -159 174 -130 -189 -228
-312 -311 -391 -37 -35 -51 -41 -52 -20 -8 155 -68 308 -150 381 -170 153
-396 181 -589 74 -233 -130 -431 -431 -587 -893 -37 -108 -115 -385 -128 -457
-2 -11 -6 -27 -9 -36 -3 -9 -8 -31 -11 -49 -11 -66 -31 -99 -125 -207 -27 -30
-128 -104 -170 -123 -79 -37 -187 -38 -261 -4 -51 24 -123 87 -162 141 -57 80
-166 313 -202 430 -21 70 -29 147 -17 163 26 34 462 894 621 1226 182 381 286
690 317 946 3 22 9 65 14 95 9 58 6 381 -4 440 -23 133 -75 249 -139 307 -71
64 -176 103 -287 105 -153 3 -290 -40 -389 -121 -168 -137 -313 -449 -375
-806 -30 -175 -40 -246 -51 -360 -20 -221 -24 -309 -30 -630 -3 -154 -7 -352
-10 -440 -2 -88 -7 -275 -10 -415 -4 -140 -8 -275 -9 -300 -1 -35 -11 -60 -45
-110 -160 -237 -335 -410 -477 -470 -66 -29 -156 -29 -210 -2 -48 24 -115 95
-143 150 l-21 41 48 98 c107 221 205 488 282 765 17 62 35 124 40 138 8 21 26
89 46 170 2 8 15 62 29 120 30 123 113 491 121 535 3 17 9 46 14 65 5 19 11
49 13 65 3 17 17 93 31 170 25 137 36 205 41 255 2 24 14 122 21 185 6 50 5
347 -1 390 -33 234 -111 382 -245 467 -105 67 -310 102 -430 74z m127 -443
c54 -35 89 -143 108 -323 6 -60 6 -374 1 -430 -2 -19 -7 -73 -11 -120 -4 -47
-9 -94 -11 -105 -2 -11 -6 -44 -9 -75 -3 -31 -7 -65 -9 -77 -3 -12 -8 -43 -12
-70 -3 -26 -8 -57 -11 -68 -2 -11 -6 -32 -8 -47 -6 -39 -53 -294 -65 -348 -5
-25 -12 -60 -15 -79 -3 -19 -7 -37 -9 -40 -2 -3 -7 -24 -10 -46 -17 -107 -191
-762 -221 -830 l-13 -30 -2 50 c-1 28 -3 64 -5 80 -1 17 -5 68 -9 115 -4 47
-9 123 -12 170 -2 47 -6 124 -9 171 -17 266 -23 915 -11 1149 22 441 29 511
72 745 19 100 86 204 148 230 32 14 82 5 123 -22z m1543 -121 c119 -59 148
-266 76 -544 -57 -220 -162 -523 -256 -733 -10 -22 -35 -87 -55 -145 -70 -193
-226 -615 -239 -645 -7 -16 -23 -59 -36 -95 -40 -114 -40 -114 -25 185 15 302
24 428 40 610 3 33 7 80 10 105 6 69 23 210 30 250 6 33 12 73 20 140 4 30 9
62 10 70 7 38 17 102 31 195 20 134 82 354 131 465 56 128 168 188 263 142z
m-3138 -1629 c31 -28 44 -60 63 -153 25 -117 25 -370 1 -510 -3 -14 -10 -61
-16 -105 -6 -44 -27 -174 -47 -290 -19 -115 -35 -216 -36 -222 -1 -34 -19 -2
-57 105 -40 112 -125 390 -134 435 -2 12 -9 43 -15 69 -34 149 -36 424 -2 535
15 51 52 112 80 129 56 37 126 40 163 7z m4726 -193 c45 -33 82 -132 87 -230
6 -126 -190 -115 -323 19 -39 39 -92 112 -92 126 0 11 107 73 160 92 68 26
127 23 168 -7z m-420 -510 c105 -103 207 -158 312 -165 25 -1 66 6 109 20 l23
7 -6 -93 c-7 -115 -13 -173 -26 -264 -6 -38 -12 -83 -15 -100 -15 -102 -45
-232 -75 -324 -57 -175 -183 -396 -271 -475 -163 -148 -348 -100 -412 105 -23
73 -27 91 -34 184 -14 173 -4 360 31 570 2 11 7 40 11 65 19 125 100 396 149
504 14 31 26 58 26 61 0 2 9 20 21 39 l20 35 51 -66 c27 -37 66 -83 86 -103z"/>
<path d="M10469 8148 c-6 -23 -13 -54 -15 -68 -2 -14 -5 -34 -8 -45 -9 -42
-32 -213 -40 -300 -14 -146 -18 -187 -21 -246 -28 -481 -28 -1608 0 -2274 18
-450 29 -674 39 -865 3 -41 8 -128 11 -192 9 -157 8 -153 36 -152 124 5 286
45 305 76 4 6 8 163 10 347 2 302 5 470 19 981 2 85 7 259 10 385 3 127 7 289
10 360 2 72 7 234 10 360 4 127 8 286 10 355 2 69 7 217 10 330 3 113 8 257
10 320 2 63 7 207 10 318 3 112 6 207 7 210 4 38 -2 41 -142 76 -8 2 -62 16
-120 31 -58 14 -113 28 -122 31 -13 4 -20 -5 -29 -38z"/>
<path d="M10575 3626 c-92 -29 -159 -86 -199 -170 -30 -63 -29 -133 3 -199 99
-205 417 -208 523 -5 50 93 19 243 -63 312 -76 64 -178 88 -264 62z"/>
</g>
</svg>
